<svg width="51" height="51" viewBox="0 0 51 51" fill="none" xmlns="http://www.w3.org/2000/svg">
<path d="M25.3316 0C11.3486 0 0 11.3486 0 25.3316C0 39.3147 11.3486 50.6633 25.3316 50.6633C39.3147 50.6633 50.6633 39.3147 50.6633 25.3316C50.6633 11.3486 39.3147 0 25.3316 0ZM37.0855 17.2255C36.7056 21.2279 35.059 30.9553 34.2231 35.439C33.8684 37.3389 33.1591 37.9721 32.5005 38.0481C31.0313 38.1748 29.9167 37.0855 28.4981 36.1483C26.2689 34.679 25.0023 33.7671 22.8491 32.3485C20.3413 30.702 21.9625 29.79 23.4064 28.3208C23.7864 27.9408 30.2713 22.0385 30.398 21.5066C30.4156 21.426 30.4132 21.3424 30.3912 21.2629C30.3691 21.1834 30.3279 21.1106 30.2713 21.0506C30.1193 20.9239 29.9167 20.9746 29.7394 20.9999C29.5114 21.0506 25.9649 23.4064 19.0494 28.0675C18.0361 28.7514 17.1242 29.1061 16.3136 29.0807C15.4016 29.0554 13.6791 28.5741 12.3872 28.1435C10.7913 27.6368 9.55003 27.3582 9.65136 26.4716C9.70202 26.0156 10.3353 25.5596 11.5259 25.0783C18.9227 21.8612 23.8371 19.7334 26.2943 18.7201C33.3365 15.7816 34.7804 15.275 35.743 15.275C35.9456 15.275 36.4269 15.3256 36.7309 15.579C37.1404 15.9066 37.0998 16.5288 37.0924 17.0532C37.0916 17.1121 37.0895 17.1701 37.0855 17.2255Z" fill="#196950"/>
</svg>
