<svg width="51" height="51" viewBox="0 0 51 51" fill="none" xmlns="http://www.w3.org/2000/svg">
<path d="M32.9814 0H17.5037C3.36046 0 0 3.36298 0 17.4759V32.9562C0 47.0944 3.33775 50.4574 17.4759 50.4574H32.9562C47.0944 50.4574 50.4574 47.1196 50.4574 32.9814V17.5037C50.4574 3.36046 47.1196 0 32.9814 0ZM40.7342 36.0013H37.0534C35.6607 36.0013 35.2419 34.8736 32.7443 32.376C30.5645 30.2744 29.6437 30.012 29.0912 30.012C28.3293 30.012 28.1199 30.2214 28.1199 31.2735V34.5835C28.1199 35.4791 27.8298 36.0038 25.4911 36.0038C23.2217 35.8497 21.0214 35.1595 19.0706 33.9898C17.1199 32.8201 15.4744 31.2044 14.2693 29.2754C11.4093 25.7194 9.42046 21.5439 8.4617 17.0823C8.4617 16.5298 8.6711 16.0303 9.72313 16.0303H13.404C14.3501 16.0303 14.6907 16.4516 15.059 17.4229C16.8452 22.6806 19.8928 27.252 21.129 27.252C21.6033 27.252 21.8102 27.0426 21.8102 25.8594V20.4453C21.6538 17.9754 20.3419 17.766 20.3419 16.8729C20.3587 16.6374 20.4667 16.4176 20.6428 16.2603C20.819 16.103 21.0495 16.0205 21.2854 16.0303H27.0678C27.8575 16.0303 28.1199 16.4239 28.1199 17.3699V24.6762C28.1199 25.4658 28.4605 25.7282 28.6976 25.7282C29.1719 25.7282 29.5377 25.4658 30.4056 24.598C32.2696 22.3247 33.7926 19.7921 34.9266 17.0798C35.0432 16.7545 35.2627 16.4761 35.5518 16.2867C35.8408 16.0973 36.1838 16.0073 36.5286 16.0303H40.2095C41.312 16.0303 41.5466 16.5828 41.312 17.3699C39.9736 20.3682 38.3176 23.2143 36.3722 25.8594C35.9761 26.4649 35.8172 26.7802 36.3722 27.4892C36.738 28.0417 38.0272 29.1189 38.8951 30.1432C40.1558 31.4016 41.203 32.8571 41.9957 34.4523C42.311 35.4766 41.7837 36.0013 40.7342 36.0013Z" fill="#196950"/>
</svg>
