<svg width="51" height="51" viewBox="0 0 51 51" fill="none" xmlns="http://www.w3.org/2000/svg">
<path d="M25.3317 0C39.3223 0 50.6633 11.341 50.6633 25.3316C50.6633 39.3223 39.3223 50.6633 25.3317 50.6633C20.8549 50.671 16.4569 49.4862 12.5899 47.2308L0.0101718 50.6633L3.43501 38.0785C1.17785 34.2102 -0.00780626 29.8103 3.86781e-05 25.3316C3.86781e-05 11.341 11.341 0 25.3317 0ZM16.6987 13.4258L16.192 13.446C15.8645 13.4686 15.5444 13.5546 15.2497 13.6993C14.975 13.8552 14.7242 14.0497 14.5049 14.2769C14.201 14.5632 14.0287 14.8114 13.8438 15.0521C12.9068 16.2703 12.4023 17.7659 12.41 19.3027C12.4151 20.544 12.7393 21.7523 13.2459 22.8821C14.282 25.167 15.9868 27.5861 18.2363 29.828C18.7784 30.3676 19.3103 30.9097 19.8828 31.4138C22.678 33.8745 26.0087 35.6491 29.6102 36.5966L31.049 36.817C31.5177 36.8423 31.9863 36.8069 32.4575 36.7841C33.1951 36.7452 33.9153 36.5454 34.5676 36.1989C34.899 36.0275 35.2228 35.8416 35.5378 35.6416C35.5378 35.6416 35.645 35.569 35.8544 35.4136C36.1964 35.1603 36.4067 34.9804 36.6904 34.6841C36.9032 34.4645 37.0805 34.2095 37.2223 33.9191C37.4199 33.5061 37.6175 32.7183 37.6986 32.0622C37.7594 31.5607 37.7416 31.2871 37.734 31.1174C37.7239 30.8463 37.4985 30.5651 37.2527 30.4461L35.7784 29.7849C35.7784 29.7849 33.5746 28.8249 32.2269 28.2118C32.0859 28.1504 31.9348 28.1152 31.7811 28.108C31.6078 28.0898 31.4326 28.1092 31.2673 28.1647C31.1021 28.2202 30.9508 28.3106 30.8236 28.4297C30.8109 28.4246 30.6412 28.569 28.8097 30.7881C28.7046 30.9293 28.5598 31.0361 28.3938 31.0947C28.2277 31.1534 28.048 31.1613 27.8775 31.1174C27.7124 31.0734 27.5507 31.0175 27.3937 30.9502C27.0796 30.8185 26.9706 30.7678 26.7553 30.6766C25.301 30.0431 23.9547 29.1858 22.7656 28.1358C22.4464 27.8572 22.15 27.5532 21.846 27.2594C20.8495 26.3049 19.981 25.2252 19.2622 24.0473L19.1128 23.8067C19.007 23.644 18.9203 23.4698 18.8544 23.2874C18.7581 22.915 19.0089 22.6161 19.0089 22.6161C19.0089 22.6161 19.6245 21.9423 19.9107 21.5775C20.1893 21.2228 20.4249 20.8783 20.5769 20.6326C20.8758 20.1513 20.9696 19.6573 20.8125 19.2748C20.1032 17.5422 19.3703 15.8188 18.6137 14.1047C18.4643 13.7652 18.021 13.522 17.6182 13.4739C17.4814 13.457 17.3446 13.4435 17.2078 13.4334C16.8677 13.4139 16.5266 13.4172 16.187 13.4435L16.6987 13.4258Z" fill="#196950"/>
</svg>
